<svg xmlns="http://www.w3.org/2000/svg" viewBox="0 0 512 512">
  <title>Chunes logo</title>
  <circle cx="256" cy="256" r="256" fill="#2b2d36"/>
  <circle cx="256" cy="256" r="251" fill="none" stroke="#ffffff" stroke-opacity="0.14" stroke-width="10"/>
  <circle cx="256" cy="256" r="222" fill="none" stroke="#ffffff" stroke-opacity="0.09" stroke-width="9"/>
  <circle cx="256" cy="256" r="196" fill="none" stroke="#ffffff" stroke-opacity="0.09" stroke-width="9"/>
  <circle cx="256" cy="256" r="170" fill="none" stroke="#ffffff" stroke-opacity="0.09" stroke-width="9"/>
  <g fill="#5865f2" transform="translate(138 143) scale(14)">
    <path d="M6 13c0 1.105-1.12 2-2.5 2S1 14.105 1 13s1.12-2 2.5-2 2.5.896 2.5 2m9-2c0 1.105-1.12 2-2.5 2s-2.5-.895-2.5-2 1.12-2 2.5-2 2.5.895 2.5 2"/>
    <path fill-rule="evenodd" d="M14 11V2h1v9zM6 3v10H5V3z"/>
    <path d="M5 2.905a1 1 0 0 1 .9-.995l8-.8a1 1 0 0 1 1.1.995V3L5 4z"/>
  </g>
</svg>
